<svg enable-background="new 0 0 14 14" viewBox="0 0 14 14" xmlns="http://www.w3.org/2000/svg"><g fill="#050f35"><path d="m11 .85c1.19 0 2.15.96 2.15 2.15v8c0 1.19-.96 2.15-2.15 2.15h-8c-1.19 0-2.15-.96-2.15-2.15v-8c0-1.19.96-2.15 2.15-2.15zm0-.85h-8c-1.66 0-3 1.34-3 3v8c0 1.66 1.34 3 3 3h8c1.66 0 3-1.34 3-3v-8c0-1.66-1.34-3-3-3z"/><path d="m7 4.34c1.47 0 2.66 1.19 2.66 2.66s-1.19 2.66-2.66 2.66-2.66-1.19-2.66-2.66 1.19-2.66 2.66-2.66m0-.85c-1.94 0-3.51 1.57-3.51 3.51s1.57 3.51 3.51 3.51 3.51-1.57 3.51-3.51-1.57-3.51-3.51-3.51z"/><circle cx="10.99" cy="2.99" r=".75"/></g></svg>